<?xml version="1.0" encoding="UTF-8" standalone="no"?>
<!-- Created with Inkscape (http://www.inkscape.org/) -->

<svg
   width="113.74477mm"
   height="81.614113mm"
   viewBox="0 0 113.74477 81.614113"
   version="1.1"
   id="svg1"
   xml:space="preserve"
   xmlns:inkscape="http://www.inkscape.org/namespaces/inkscape"
   xmlns:sodipodi="http://sodipodi.sourceforge.net/DTD/sodipodi-0.dtd"
   xmlns="http://www.w3.org/2000/svg"
   xmlns:svg="http://www.w3.org/2000/svg"><sodipodi:namedview
     id="namedview1"
     pagecolor="#ffffff"
     bordercolor="#000000"
     borderopacity="0.25"
     inkscape:showpageshadow="2"
     inkscape:pageopacity="0.0"
     inkscape:pagecheckerboard="0"
     inkscape:deskcolor="#d1d1d1"
     inkscape:document-units="mm" /><defs
     id="defs1" /><g
     inkscape:label="Camada 1"
     inkscape:groupmode="layer"
     id="layer1"
     transform="translate(-48.029561,-151.36346)"><path
       style="fill:#c62828;fill-opacity:1"
       d="m 81.352472,232.57019 c -4.430576,-1.1689 -8.192406,-4.29201 -10.171876,-8.44479 -1.1246,-2.35933 -1.53941,-4.17737 -1.53941,-6.74688 0,-7.09811 4.61385,-13.17115 11.578996,-15.24097 2.13161,-0.63345 6.07047,-0.63345 8.20208,0 5.195681,1.54399 9.376171,5.56456 10.970738,10.55106 l 0.31935,0.99863 4.23124,-0.0726 4.23124,-0.0726 0.48302,-1.37238 c 1.70428,-4.84229 5.65938,-8.54117 10.72066,-10.02615 2.12466,-0.62337 6.07743,-0.62337 8.20209,0 7.9379,2.32897 12.80343,9.96103 11.39926,17.88082 -0.9957,5.61596 -4.93828,10.2638 -10.35888,12.21193 -2.1844,0.78506 -6.51069,0.97218 -8.8489,0.38274 -2.98991,-0.75373 -4.95062,-1.89156 -7.30079,-4.23677 -2.45355,-2.44836 -3.81734,-4.90416 -4.38428,-7.89488 l -0.33855,-1.78593 h -3.85467 -3.85467 l -0.29529,1.72384 c -0.58876,3.43721 -2.860397,7.10592 -5.758497,9.30005 -1.95878,1.48298 -2.950221,1.99274 -5.260211,2.70463 -2.17262,0.66956 -6.11597,0.7356 -8.37265,0.14023 z m 8.55124,-5.62344 c 2.23718,-1.10135 4.020411,-2.89037 5.053161,-5.06956 0.75734,-1.59805 0.81534,-1.92775 0.81461,-4.63096 -7.1e-4,-2.68188 -0.0618,-3.03507 -0.77749,-4.49792 -3.928171,-8.02861 -15.460421,-7.99303 -19.274687,0.0595 -0.78804,1.66368 -0.84912,1.99246 -0.84912,4.57075 0,2.56828 0.0625,2.90803 0.82687,4.49792 1.28342,2.66933 3.717026,4.80143 6.524846,5.71647 0.70339,0.22922 2.00386,0.33608 3.52311,0.28949 2.09891,-0.0644 2.63298,-0.18453 4.1587,-0.93565 z m 39.073758,0.0564 c 6.69422,-3.14081 8.2668,-11.97368 3.05896,-17.18152 -5.18436,-5.18437 -14.02094,-3.63721 -17.16803,3.00586 -0.77757,1.64135 -0.83989,1.97902 -0.83989,4.55102 0,2.46038 0.0811,2.95116 0.7091,4.29103 0.83513,1.78181 2.77782,3.94849 4.38456,4.8901 1.89217,1.10888 3.17018,1.40283 5.75426,1.32351 2.00991,-0.0617 2.64944,-0.19893 4.10104,-0.88 z M 49.43235,199.12449 c -1.52158,-0.61404 -1.89051,-2.7448 -0.68412,-3.95118 0.82788,-0.82789 0.6704,-0.80443 9.850076,-1.46757 32.348206,-2.33684 62.400714,-2.29029 94.429544,0.14626 3.84162,0.29225 7.19903,0.64603 7.46091,0.78619 1.46741,0.78533 1.72885,2.77006 0.52365,3.97526 -0.90909,0.90909 -0.71022,0.89848 -7.16674,0.38221 -17.10089,-1.36743 -29.3813,-1.82847 -48.81299,-1.8326 -19.384998,-0.004 -32.016344,0.4675 -49.07757,1.83241 -5.51816,0.44145 -5.73778,0.4458 -6.52276,0.12902 z m 11.262276,-10.03606 c -0.44458,-0.44457 -0.7734,-1.05616 -0.7734,-1.43848 0,-0.85387 10.39621,-28.48827 11.31148,-30.06729 1.7762,-3.06429 5.61877,-5.58035 9.298856,-6.08876 2.50871,-0.34657 4.17408,-0.0503 8.25743,1.46904 5.840611,2.17318 10.393142,3.0291 16.111398,3.0291 5.72684,0 10.38244,-0.87776 16.21061,-3.05632 1.71255,-0.64015 3.84633,-1.28189 4.74174,-1.42609 5.12927,-0.82604 10.76316,2.12022 13.13078,6.86678 1.19597,2.39767 10.89603,28.39086 10.89603,29.19803 0,0.36261 -0.32216,1.04217 -0.71592,1.51012 l -0.71593,0.85084 -2.65751,-0.16287 c -1.46163,-0.0896 -4.44345,-0.3394 -6.62626,-0.55513 -11.18494,-1.10545 -16.61376,-1.31945 -33.73438,-1.32979 -17.665698,-0.0107 -21.648778,0.14239 -34.660404,1.33199 -9.11101,0.83299 -9.11037,0.833 -10.07452,-0.13117 z m 12.19118,-5.17203 c 23.049347,-1.85455 45.156904,-1.77533 66.674994,0.23894 2.11006,0.19752 3.86836,0.32984 3.90734,0.29404 0.16063,-0.14747 -8.73275,-23.3557 -9.3601,-24.4262 -0.70994,-1.21142 -2.44433,-2.61453 -3.89125,-3.14799 -1.60842,-0.59301 -4.21774,-0.42325 -6.32566,0.41152 -6.40821,2.53778 -10.72547,3.45671 -17.17573,3.6559 -7.432116,0.22951 -12.205537,-0.53511 -19.145218,-3.06671 -5.14313,-1.87621 -7.19438,-1.84608 -10.01227,0.1471 -0.650996,0.46047 -1.483236,1.35344 -1.849416,1.98438 -0.36619,0.63094 -2.57124,6.20732 -4.90013,12.39195 -2.32888,6.18464 -4.31842,11.46154 -4.4212,11.72646 -0.16407,0.4229 -0.0776,0.46353 0.70849,0.33305 0.49245,-0.0817 3.09802,-0.32583 5.79015,-0.54244 z"
       id="path1-0"
       inkscape:export-filename="logo.png"
       inkscape:export-xdpi="96"
       inkscape:export-ydpi="96" /></g></svg>
